<?xml version="1.0" encoding="UTF-8"?>
<svg version="1.1" xmlns="http://www.w3.org/2000/svg" width="412" height="386">
<path d="M0 0 C135.96 0 271.92 0 412 0 C412 127.38 412 254.76 412 386 C276.04 386 140.08 386 0 386 C0 258.62 0 131.24 0 0 Z " fill="#F3F3F5" transform="translate(0,0)"/>
<path d="M0 0 C12.87 0 25.74 0 39 0 C39.33 16.83 39.66 33.66 40 51 C69.205 51.495 69.205 51.495 99 52 C99 64.87 99 77.74 99 91 C79.53 91.33 60.06 91.66 40 92 C39.67 139.52 39.34 187.04 39 236 C26.13 236 13.26 236 0 236 C-0.33 188.48 -0.66 140.96 -1 92 C-30.205 91.505 -30.205 91.505 -60 91 C-60 78.13 -60 65.26 -60 52 C-40.53 51.67 -21.06 51.34 -1 51 C-0.67 34.17 -0.34 17.34 0 0 Z " fill="#030303" transform="translate(190,77)"/>
</svg>
